{
  "accessors": [
    {
      "bufferView": 2,
      "componentType": 5126,
      "count": 9093,
      "max": [
        1.8420699834823608,
        0.90788000822067261,
        4.6087498664855957
      ],
      "min": [
        -1.8420699834823608,
        -0.65491002798080444,
        -4.3439798355102539
      ],
      "type": "VEC3"
    },
    {
      "bufferView": 2,
      "byteOffset": 109116,
      "componentType": 5126,
      "count": 9093,
      "max": [
        0.9999811053276062,
        0.99993324279785156,
        0.99766474962234497
      ],
      "min": [
        -0.9999811053276062,
        -0.99996489286422729,
        -0.99987202882766724
      ],
      "type": "VEC3"
    },
    {
      "bufferView": 3,
      "componentType": 5126,
      "count": 9093,
      "max": [
        0.99989879131317139,
        0.99997514486312866,
        0.99996829032897949,
        1
      ],
      "min": [
        -0.9999958872795105,
        -0.99906700849533081,
        -0.9999314546585083,
        -1
      ],
      "type": "VEC4"
    },
    {
      "bufferView": 1,
      "componentType": 5126,
      "count": 9093,
      "max": [
        0.99965000152587891,
        0.93835997581481934
      ],
      "min": [
        0.0003499999875202775,
        0.0003499999875202775
      ],
      "type": "VEC2"
    },
    {
      "bufferView": 0,
      "componentType": 5125,
      "count": 46896,
      "max": [
        9092
      ],
      "min": [
        0
      ],
      "type": "SCALAR"
    }
  ],
  "asset": {
    "extras": {
      "author": "graft (https://sketchfab.com/graft)",
      "license": "CC-BY-4.0 (http://creativecommons.org/licenses/by/4.0/)",
      "source": "https://sketchfab.com/models/423ab35b97f14f3ba179e3625e9e6945",
      "title": "female anatomy_2"
    },
    "generator": "Sketchfab-3.18.5",
    "version": "2.0"
  },
  "bufferViews": [
    {
      "buffer": 0,
      "byteLength": 187584,
      "byteOffset": 0,
      "name": "floatBufferViews",
      "target": 34963
    },
    {
      "buffer": 0,
      "byteLength": 72744,
      "byteOffset": 187584,
      "byteStride": 8,
      "name": "floatBufferViews",
      "target": 34962
    },
    {
      "buffer": 0,
      "byteLength": 218232,
      "byteOffset": 260328,
      "byteStride": 12,
      "name": "floatBufferViews",
      "target": 34962
    },
    {
      "buffer": 0,
      "byteLength": 145488,
      "byteOffset": 478560,
      "byteStride": 16,
      "name": "floatBufferViews",
      "target": 34962
    }
  ],
  "buffers": [
    {
      "byteLength": 624048,
      "uri": "scene.bin"
    }
  ],
  "extensionsUsed": [
    "KHR_materials_unlit"
  ],
  "images": [
    {
      "uri": "textures/Material.003_baseColor.png"
    }
  ],
  "materials": [
    {
      "doubleSided": true,
      "emissiveFactor": [
        0,
        0,
        0
      ],
      "extensions": {
        "KHR_materials_unlit": {}
      },
      "name": "Material.003",
      "pbrMetallicRoughness": {
        "baseColorFactor": [
          1,
          1,
          1,
          1
        ],
        "baseColorTexture": {
          "index": 0,
          "texCoord": 0
        },
        "metallicFactor": 0,
        "roughnessFactor": 1
      }
    }
  ],
  "meshes": [
    {
      "name": "body_scalony.003_0",
      "primitives": [
        {
          "attributes": {
            "NORMAL": 1,
            "POSITION": 0,
            "TANGENT": 2,
            "TEXCOORD_0": 3
          },
          "indices": 4,
          "material": 0,
          "mode": 4
        }
      ]
    }
  ],
  "nodes": [
    {
      "children": [
        1
      ],
      "name": "RootNode (gltf orientation matrix)",
      "rotation": [
        -0.70710678118654746,
        -0,
        -0,
        0.70710678118654757
      ]
    },
    {
      "children": [
        2
      ],
      "name": "RootNode (model correction matrix)"
    },
    {
      "children": [
        3
      ],
      "name": "Root"
    },
    {
      "children": [
        4
      ],
      "matrix": [
        1,
        0,
        0,
        0,
        0,
        1,
        0,
        0,
        0,
        0,
        1,
        0,
        4.0000000000000017e-05,
        -0.00067000000000000024,
        0.023660000000000007,
        1
      ],
      "name": "body_scalony.003"
    },
    {
      "mesh": 0,
      "name": "body_scalony.003_0"
    }
  ],
  "samplers": [
    {
      "magFilter": 9729,
      "minFilter": 9987,
      "wrapS": 10497,
      "wrapT": 10497
    }
  ],
  "scene": 0,
  "scenes": [
    {
      "name": "OSG_Scene",
      "nodes": [
        0
      ]
    }
  ],
  "textures": [
    {
      "sampler": 0,
      "source": 0
    }
  ]
}

